<mxfile host="app.diagrams.net" agent="Mozilla/5.0 (Windows NT 10.0; Win64; x64) AppleWebKit/537.36 (KHTML, like Gecko) Chrome/138.0.0.0 Safari/537.36" version="27.2.0">
  <diagram name="Page-1" id="foL-229CbkLaBiqpEtVU">
    <mxGraphModel>
      <root>
        <mxCell id="0" />
        <mxCell id="1" parent="0" />
        <mxCell id="2" value="Admin_Report" style="whiteSpace=wrap;strokeWidth=2;" vertex="1" parent="1">
          <mxGeometry x="9" y="387" width="202" height="104" as="geometry" />
        </mxCell>
        <mxCell id="3" value="User" style="whiteSpace=wrap;strokeWidth=2;" vertex="1" parent="1">
          <mxGeometry x="322" y="8" width="92" height="54" as="geometry" />
        </mxCell>
        <mxCell id="4" value="Create_Ticket" style="whiteSpace=wrap;strokeWidth=2;" vertex="1" parent="1">
          <mxGeometry x="287" y="134" width="161" height="54" as="geometry" />
        </mxCell>
        <mxCell id="5" value="Assign_Agent" style="whiteSpace=wrap;strokeWidth=2;" vertex="1" parent="1">
          <mxGeometry x="338" y="261" width="153" height="54" as="geometry" />
        </mxCell>
        <mxCell id="6" value="Resolve_Ticket" style="whiteSpace=wrap;strokeWidth=2;" vertex="1" parent="1">
          <mxGeometry x="332" y="412" width="166" height="54" as="geometry" />
        </mxCell>
        <mxCell id="7" value="Close_Feedback" style="whiteSpace=wrap;strokeWidth=2;" vertex="1" parent="1">
          <mxGeometry x="368" y="564" width="175" height="54" as="geometry" />
        </mxCell>
        <mxCell id="8" value="Ticket DB" style="whiteSpace=wrap;strokeWidth=2;" vertex="1" parent="1">
          <mxGeometry x="187" y="564" width="128" height="54" as="geometry" />
        </mxCell>
        <mxCell id="9" value="Agent Actions" style="whiteSpace=wrap;strokeWidth=2;" vertex="1" parent="1">
          <mxGeometry x="463" y="8" width="157" height="54" as="geometry" />
        </mxCell>
        <mxCell id="10" value="Feedback DB" style="whiteSpace=wrap;strokeWidth=2;" vertex="1" parent="1">
          <mxGeometry x="194" y="668" width="152" height="54" as="geometry" />
        </mxCell>
        <mxCell id="11" value="Admin" style="whiteSpace=wrap;strokeWidth=2;" vertex="1" parent="1">
          <mxGeometry x="63" y="412" width="105" height="54" as="geometry" />
        </mxCell>
        <mxCell id="12" value="Create Ticket" style="curved=1;startArrow=none;endArrow=block;exitX=0.49;exitY=1;entryX=0.5;entryY=0.01;" edge="1" parent="1" source="3" target="4">
          <mxGeometry relative="1" as="geometry">
            <Array as="points" />
          </mxGeometry>
        </mxCell>
        <mxCell id="13" value="Assign Agent" style="curved=1;startArrow=none;endArrow=block;exitX=0.63;exitY=1.01;entryX=0.5;entryY=0;" edge="1" parent="1" source="4" target="5">
          <mxGeometry relative="1" as="geometry">
            <Array as="points">
              <mxPoint x="415" y="225" />
            </Array>
          </mxGeometry>
        </mxCell>
        <mxCell id="14" value="Resolve Ticket" style="curved=1;startArrow=none;endArrow=block;exitX=0.5;exitY=1;entryX=0.5;entryY=0;" edge="1" parent="1" source="5" target="6">
          <mxGeometry relative="1" as="geometry">
            <Array as="points" />
          </mxGeometry>
        </mxCell>
        <mxCell id="15" value="Close/Feedback" style="curved=1;startArrow=none;endArrow=block;exitX=0.62;exitY=1;entryX=0.5;entryY=-0.01;" edge="1" parent="1" source="6" target="7">
          <mxGeometry relative="1" as="geometry">
            <Array as="points">
              <mxPoint x="455" y="491" />
            </Array>
          </mxGeometry>
        </mxCell>
        <mxCell id="16" value="" style="curved=1;startArrow=none;endArrow=block;exitX=0.2;exitY=1.01;entryX=0.51;entryY=-0.01;" edge="1" parent="1" source="4" target="8">
          <mxGeometry relative="1" as="geometry">
            <Array as="points">
              <mxPoint x="254" y="225" />
              <mxPoint x="254" y="527" />
            </Array>
          </mxGeometry>
        </mxCell>
        <mxCell id="17" value="" style="curved=1;startArrow=none;endArrow=block;exitX=0.22;exitY=1;entryX=0.74;entryY=-0.01;" edge="1" parent="1" source="6" target="8">
          <mxGeometry relative="1" as="geometry">
            <Array as="points">
              <mxPoint x="324" y="491" />
              <mxPoint x="324" y="527" />
            </Array>
          </mxGeometry>
        </mxCell>
        <mxCell id="18" value="" style="curved=1;startArrow=none;endArrow=block;exitX=0.5;exitY=0.99;entryX=1;entryY=0.1;" edge="1" parent="1" source="7" target="10">
          <mxGeometry relative="1" as="geometry">
            <Array as="points">
              <mxPoint x="455" y="643" />
            </Array>
          </mxGeometry>
        </mxCell>
        <mxCell id="19" value="Generate Reports" style="curved=1;startArrow=none;endArrow=block;exitX=0.71;exitY=1;entryX=0.19;entryY=-0.01;" edge="1" parent="1" source="11" target="8">
          <mxGeometry relative="1" as="geometry">
            <Array as="points">
              <mxPoint x="157" y="491" />
              <mxPoint x="157" y="527" />
            </Array>
          </mxGeometry>
        </mxCell>
        <mxCell id="20" value="Generate Reports" style="curved=1;startArrow=none;endArrow=block;exitX=0.29;exitY=1;entryX=0;entryY=0.12;" edge="1" parent="1" source="11" target="10">
          <mxGeometry relative="1" as="geometry">
            <Array as="points">
              <mxPoint x="73" y="491" />
              <mxPoint x="73" y="643" />
            </Array>
          </mxGeometry>
        </mxCell>
      </root>
    </mxGraphModel>
  </diagram>
</mxfile>
